<?xml version="1.0" encoding="UTF-8" standalone="no"?>
<!DOCTYPE svg PUBLIC "-//W3C//DTD SVG 1.1//EN"
 "http://www.w3.org/Graphics/SVG/1.1/DTD/svg11.dtd">
<!-- Generated by graphviz version 2.43.0 (0)
 -->
<!-- Title: G Pages: 1 -->
<svg width="918pt" height="423pt"
 viewBox="0.00 0.00 917.96 423.28" xmlns="http://www.w3.org/2000/svg" xmlns:xlink="http://www.w3.org/1999/xlink">
<g id="graph0" class="graph" transform="scale(1 1) rotate(0) translate(4 419.28)">
<title>G</title><style>.edge>path:hover{stroke-width:8}</style>
<polygon fill="white" stroke="transparent" points="-4,4 -4,-419.28 913.96,-419.28 913.96,4 -4,4"/>
<!-- alignment_global_registration -->
<g id="node1" class="node">
<title>alignment_global_registration</title><style>.edge>path:hover{stroke-width:8}</style>
<ellipse fill="#b83d3d" stroke="black" cx="629.39" cy="-99.64" rx="76.24" ry="21.43"/>
<text text-anchor="middle" x="629.39" y="-102.64" font-family="Helvetica,sans-Serif" font-size="10.00" fill="#ffffff">alignment.</text>
<text text-anchor="middle" x="629.39" y="-91.64" font-family="Helvetica,sans-Serif" font-size="10.00" fill="#ffffff">global_registration</text>
</g>
<!-- alignment_map_zipper -->
<g id="node2" class="node">
<title>alignment_map_zipper</title><style>.edge>path:hover{stroke-width:8}</style>
<ellipse fill="#883a3a" stroke="black" cx="629.39" cy="-21.21" rx="52.15" ry="21.43"/>
<text text-anchor="middle" x="629.39" y="-24.21" font-family="Helvetica,sans-Serif" font-size="10.00" fill="#ffffff">alignment.</text>
<text text-anchor="middle" x="629.39" y="-13.21" font-family="Helvetica,sans-Serif" font-size="10.00" fill="#ffffff">map_zipper</text>
</g>
<!-- alignment_global_registration&#45;&gt;alignment_map_zipper -->
<g id="edge1" class="edge">
<title>alignment_global_registration&#45;&gt;alignment_map_zipper</title><style>.edge>path:hover{stroke-width:8}</style>
<path fill="none" stroke="black" d="M629.39,-78.16C629.39,-70.3 629.39,-61.16 629.39,-52.57"/>
<polygon fill="#b83d3d" stroke="black" points="632.89,-52.49 629.39,-42.49 625.89,-52.49 632.89,-52.49"/>
</g>
<!-- tqdm -->
<g id="node3" class="node">
<title>tqdm</title><style>.edge>path:hover{stroke-width:8}</style>
<polygon fill="blue" stroke="black" points="354.39,-196.07 300.39,-196.07 300.39,-160.07 354.39,-160.07 354.39,-196.07"/>
<text text-anchor="middle" x="327.39" y="-175.57" font-family="Helvetica,sans-Serif" font-size="10.00" fill="white">tqdm</text>
</g>
<!-- tqdm&#45;&gt;alignment_map_zipper -->
<g id="edge2" class="edge">
<title>tqdm&#45;&gt;alignment_map_zipper</title><style>.edge>path:hover{stroke-width:8}</style>
<path fill="none" stroke="black" d="M354.49,-171.81C395.07,-162.86 472.48,-141.54 525.39,-100.64"/>
<path fill="none" stroke="black" d="M525.39,-98.64C535.15,-91.1 534.96,-86.37 544.39,-78.43 558.98,-66.13 576.36,-54.22 591.59,-44.55"/>
<polygon fill="blue" stroke="black" points="593.64,-47.4 600.27,-39.13 589.94,-41.46 593.64,-47.4"/>
</g>
<!-- tqdm__dist_ver -->
<g id="node4" class="node">
<title>tqdm__dist_ver</title><style>.edge>path:hover{stroke-width:8}</style>
<ellipse fill="#53b653" stroke="black" cx="357.39" cy="-397.28" rx="52.28" ry="18"/>
<text text-anchor="middle" x="357.39" y="-394.78" font-family="Helvetica,sans-Serif" font-size="10.00" fill="#000000">tqdm._dist_ver</text>
</g>
<!-- tqdm_version -->
<g id="node12" class="node">
<title>tqdm_version</title><style>.edge>path:hover{stroke-width:8}</style>
<ellipse fill="#40c040" stroke="black" cx="357.39" cy="-325.28" rx="47.86" ry="18"/>
<text text-anchor="middle" x="357.39" y="-322.78" font-family="Helvetica,sans-Serif" font-size="10.00" fill="#000000">tqdm.version</text>
</g>
<!-- tqdm__dist_ver&#45;&gt;tqdm_version -->
<g id="edge3" class="edge">
<title>tqdm__dist_ver&#45;&gt;tqdm_version</title><style>.edge>path:hover{stroke-width:8}</style>
<path fill="none" stroke="black" d="M357.39,-378.98C357.39,-371.26 357.39,-361.99 357.39,-353.39"/>
<polygon fill="#53b653" stroke="black" points="360.89,-353.38 357.39,-343.38 353.89,-353.38 360.89,-353.38"/>
</g>
<!-- tqdm__monitor -->
<g id="node5" class="node">
<title>tqdm__monitor</title><style>.edge>path:hover{stroke-width:8}</style>
<ellipse fill="#47c247" stroke="black" cx="52.39" cy="-397.28" rx="52.28" ry="18"/>
<text text-anchor="middle" x="52.39" y="-394.78" font-family="Helvetica,sans-Serif" font-size="10.00" fill="#000000">tqdm._monitor</text>
</g>
<!-- tqdm__monitor&#45;&gt;tqdm -->
<g id="edge4" class="edge">
<title>tqdm__monitor&#45;&gt;tqdm</title><style>.edge>path:hover{stroke-width:8}</style>
<path fill="none" stroke="black" d="M47.85,-379.07C41.49,-351.26 32.73,-295.43 52.39,-254.28"/>
<path fill="none" stroke="black" d="M52.39,-252.28C74.41,-209.84 220.35,-189.72 290.23,-182.43"/>
<polygon fill="#47c247" stroke="black" points="290.76,-185.9 300.36,-181.41 290.06,-178.93 290.76,-185.9"/>
</g>
<!-- tqdm_std -->
<g id="node10" class="node">
<title>tqdm_std</title><style>.edge>path:hover{stroke-width:8}</style>
<ellipse fill="#24d024" stroke="black" cx="115.39" cy="-325.28" rx="35.14" ry="18"/>
<text text-anchor="middle" x="115.39" y="-322.78" font-family="Helvetica,sans-Serif" font-size="10.00" fill="#000000">tqdm.std</text>
</g>
<!-- tqdm__monitor&#45;&gt;tqdm_std -->
<g id="edge5" class="edge">
<title>tqdm__monitor&#45;&gt;tqdm_std</title><style>.edge>path:hover{stroke-width:8}</style>
<path fill="none" stroke="black" d="M67.32,-379.69C75.36,-370.76 85.41,-359.59 94.24,-349.78"/>
<polygon fill="#47c247" stroke="black" points="96.91,-352.04 101,-342.27 91.71,-347.36 96.91,-352.04"/>
</g>
<!-- tqdm__tqdm_pandas -->
<g id="node6" class="node">
<title>tqdm__tqdm_pandas</title><style>.edge>path:hover{stroke-width:8}</style>
<polygon fill="blue" stroke="black" points="504.39,-271.28 416.39,-271.28 416.39,-235.28 504.39,-235.28 504.39,-271.28"/>
<text text-anchor="middle" x="460.39" y="-256.28" font-family="Helvetica,sans-Serif" font-size="10.00" fill="white">tqdm.</text>
<text text-anchor="middle" x="460.39" y="-245.28" font-family="Helvetica,sans-Serif" font-size="10.00" fill="white">_tqdm_pandas</text>
</g>
<!-- tqdm__tqdm_pandas&#45;&gt;tqdm -->
<g id="edge6" class="edge">
<title>tqdm__tqdm_pandas&#45;&gt;tqdm</title><style>.edge>path:hover{stroke-width:8}</style>
<path fill="none" stroke="black" d="M429.21,-235.11C409.55,-224.29 384.08,-210.27 363.53,-198.96"/>
<polygon fill="blue" stroke="black" points="365.22,-195.89 354.77,-194.14 361.84,-202.03 365.22,-195.89"/>
</g>
<!-- tqdm_cli -->
<g id="node7" class="node">
<title>tqdm_cli</title><style>.edge>path:hover{stroke-width:8}</style>
<ellipse fill="#49ac49" stroke="black" cx="327.39" cy="-253.28" rx="32.93" ry="18"/>
<text text-anchor="middle" x="327.39" y="-250.78" font-family="Helvetica,sans-Serif" font-size="10.00" fill="#000000">tqdm.cli</text>
</g>
<!-- tqdm_cli&#45;&gt;tqdm -->
<g id="edge7" class="edge">
<title>tqdm_cli&#45;&gt;tqdm</title><style>.edge>path:hover{stroke-width:8}</style>
<path fill="none" stroke="black" d="M327.39,-234.93C327.39,-226.45 327.39,-216.04 327.39,-206.52"/>
<polygon fill="#49ac49" stroke="black" points="330.89,-206.29 327.39,-196.29 323.89,-206.29 330.89,-206.29"/>
</g>
<!-- tqdm_gui -->
<g id="node8" class="node">
<title>tqdm_gui</title><style>.edge>path:hover{stroke-width:8}</style>
<ellipse fill="#4cb34c" stroke="black" cx="115.39" cy="-253.28" rx="35.14" ry="18"/>
<text text-anchor="middle" x="115.39" y="-250.78" font-family="Helvetica,sans-Serif" font-size="10.00" fill="#000000">tqdm.gui</text>
</g>
<!-- tqdm_gui&#45;&gt;tqdm -->
<g id="edge8" class="edge">
<title>tqdm_gui&#45;&gt;tqdm</title><style>.edge>path:hover{stroke-width:8}</style>
<path fill="none" stroke="black" d="M142.78,-241.47C148.26,-239.37 154,-237.22 159.39,-235.28 204.29,-219.1 256.49,-201.88 290.64,-190.83"/>
<polygon fill="#4cb34c" stroke="black" points="291.76,-194.14 300.2,-187.74 289.61,-187.48 291.76,-194.14"/>
</g>
<!-- tqdm_notebook -->
<g id="node9" class="node">
<title>tqdm_notebook</title><style>.edge>path:hover{stroke-width:8}</style>
<ellipse fill="#4cb34c" stroke="black" cx="222.39" cy="-253.28" rx="53.64" ry="18"/>
<text text-anchor="middle" x="222.39" y="-250.78" font-family="Helvetica,sans-Serif" font-size="10.00" fill="#000000">tqdm.notebook</text>
</g>
<!-- tqdm_notebook&#45;&gt;tqdm -->
<g id="edge9" class="edge">
<title>tqdm_notebook&#45;&gt;tqdm</title><style>.edge>path:hover{stroke-width:8}</style>
<path fill="none" stroke="black" d="M244.66,-236.75C259.08,-226.69 278.13,-213.42 294.31,-202.13"/>
<polygon fill="#4cb34c" stroke="black" points="296.75,-204.69 302.96,-196.1 292.75,-198.95 296.75,-204.69"/>
</g>
<!-- tqdm_std&#45;&gt;tqdm -->
<g id="edge10" class="edge">
<title>tqdm_std&#45;&gt;tqdm</title><style>.edge>path:hover{stroke-width:8}</style>
<path fill="none" stroke="black" d="M90.7,-312.09C68.54,-299.33 41.11,-277.88 52.39,-254.28"/>
</g>
<!-- tqdm_std&#45;&gt;tqdm_cli -->
<g id="edge11" class="edge">
<title>tqdm_std&#45;&gt;tqdm_cli</title><style>.edge>path:hover{stroke-width:8}</style>
<path fill="none" stroke="black" d="M145.43,-315.73C179.59,-305.82 236.92,-288.61 285.39,-271.28 287.64,-270.47 289.95,-269.62 292.27,-268.74"/>
<polygon fill="#24d024" stroke="black" points="293.71,-271.94 301.75,-265.05 291.17,-265.42 293.71,-271.94"/>
</g>
<!-- tqdm_std&#45;&gt;tqdm_gui -->
<g id="edge12" class="edge">
<title>tqdm_std&#45;&gt;tqdm_gui</title><style>.edge>path:hover{stroke-width:8}</style>
<path fill="none" stroke="black" d="M115.39,-306.98C115.39,-299.26 115.39,-289.99 115.39,-281.39"/>
<polygon fill="#24d024" stroke="black" points="118.89,-281.38 115.39,-271.38 111.89,-281.38 118.89,-281.38"/>
</g>
<!-- tqdm_std&#45;&gt;tqdm_notebook -->
<g id="edge13" class="edge">
<title>tqdm_std&#45;&gt;tqdm_notebook</title><style>.edge>path:hover{stroke-width:8}</style>
<path fill="none" stroke="black" d="M136.28,-310.62C151.61,-300.59 172.71,-286.78 190.19,-275.34"/>
<polygon fill="#24d024" stroke="black" points="192.5,-278.01 198.95,-269.61 188.67,-272.16 192.5,-278.01"/>
</g>
<!-- tqdm_utils -->
<g id="node11" class="node">
<title>tqdm_utils</title><style>.edge>path:hover{stroke-width:8}</style>
<ellipse fill="#53b653" stroke="black" cx="161.39" cy="-397.28" rx="38.7" ry="18"/>
<text text-anchor="middle" x="161.39" y="-394.78" font-family="Helvetica,sans-Serif" font-size="10.00" fill="#000000">tqdm.utils</text>
</g>
<!-- tqdm_utils&#45;&gt;tqdm_std -->
<g id="edge14" class="edge">
<title>tqdm_utils&#45;&gt;tqdm_std</title><style>.edge>path:hover{stroke-width:8}</style>
<path fill="none" stroke="black" d="M150.49,-379.69C144.93,-371.23 138.06,-360.77 131.87,-351.36"/>
<polygon fill="#53b653" stroke="black" points="134.63,-349.18 126.21,-342.75 128.78,-353.03 134.63,-349.18"/>
</g>
<!-- tqdm_version&#45;&gt;tqdm -->
<g id="edge15" class="edge">
<title>tqdm_version&#45;&gt;tqdm</title><style>.edge>path:hover{stroke-width:8}</style>
<path fill="none" stroke="black" d="M364.16,-307.12C370.35,-288.88 377.41,-259.4 369.39,-235.28 365.63,-223.95 358.59,-213.06 351.34,-203.93"/>
<polygon fill="#40c040" stroke="black" points="353.83,-201.45 344.7,-196.07 348.48,-205.97 353.83,-201.45"/>
</g>
<!-- tqdm_version&#45;&gt;tqdm_cli -->
<g id="edge16" class="edge">
<title>tqdm_version&#45;&gt;tqdm_cli</title><style>.edge>path:hover{stroke-width:8}</style>
<path fill="none" stroke="black" d="M350.13,-307.33C346.66,-299.25 342.44,-289.4 338.58,-280.39"/>
<polygon fill="#40c040" stroke="black" points="341.74,-278.88 334.59,-271.07 335.31,-281.64 341.74,-278.88"/>
</g>
<!-- utils -->
<g id="node13" class="node">
<title>utils</title><style>.edge>path:hover{stroke-width:8}</style>
<ellipse fill="#4747c2" stroke="black" cx="549.39" cy="-253.28" rx="27" ry="18"/>
<text text-anchor="middle" x="549.39" y="-250.78" font-family="Helvetica,sans-Serif" font-size="10.00" fill="#ffffff">utils</text>
</g>
<!-- utils&#45;&gt;alignment_global_registration -->
<g id="edge17" class="edge">
<title>utils&#45;&gt;alignment_global_registration</title><style>.edge>path:hover{stroke-width:8}</style>
<path fill="none" stroke="black" d="M525.39,-177.07C528.99,-151.2 550.86,-133.05 573.63,-120.95"/>
<polygon fill="#4747c2" stroke="black" points="575.3,-124.03 582.7,-116.44 572.18,-117.76 575.3,-124.03"/>
</g>
<!-- utils&#45;&gt;alignment_map_zipper -->
<g id="edge18" class="edge">
<title>utils&#45;&gt;alignment_map_zipper</title><style>.edge>path:hover{stroke-width:8}</style>
<path fill="none" stroke="black" d="M539.64,-236.39C531.81,-221.82 522.55,-199.47 525.39,-179.07"/>
<path fill="none" stroke="black" d="M525.39,-177.07C530.07,-143.42 498.52,-121.41 525.39,-100.64"/>
</g>
<!-- utils_logger -->
<g id="node14" class="node">
<title>utils_logger</title><style>.edge>path:hover{stroke-width:8}</style>
<ellipse fill="#4747c2" stroke="black" cx="660.39" cy="-253.28" rx="41.59" ry="18"/>
<text text-anchor="middle" x="660.39" y="-250.78" font-family="Helvetica,sans-Serif" font-size="10.00" fill="#ffffff">utils.logger</text>
</g>
<!-- utils_logger&#45;&gt;alignment_global_registration -->
<g id="edge19" class="edge">
<title>utils_logger&#45;&gt;alignment_global_registration</title><style>.edge>path:hover{stroke-width:8}</style>
<path fill="none" stroke="black" d="M659.13,-235.04C658.34,-220.15 657.89,-198.1 660.39,-179.07"/>
<path fill="none" stroke="black" d="M660.39,-177.07C662.55,-160.69 656.46,-143.55 649.13,-129.66"/>
<polygon fill="#4747c2" stroke="black" points="651.95,-127.55 643.94,-120.62 645.88,-131.03 651.95,-127.55"/>
</g>
<!-- utils_logger&#45;&gt;alignment_map_zipper -->
<g id="edge20" class="edge">
<title>utils_logger&#45;&gt;alignment_map_zipper</title><style>.edge>path:hover{stroke-width:8}</style>
<path fill="none" stroke="black" d="M660.39,-177.07C666.52,-130.49 758.38,-140.41 733.39,-100.64"/>
<path fill="none" stroke="black" d="M733.39,-98.64C718.41,-74.79 693.07,-55.94 671.16,-42.93"/>
<polygon fill="#4747c2" stroke="black" points="672.75,-39.8 662.33,-37.88 669.27,-45.88 672.75,-39.8"/>
</g>
<!-- utils_session -->
<g id="node15" class="node">
<title>utils_session</title><style>.edge>path:hover{stroke-width:8}</style>
<ellipse fill="#5353b6" stroke="black" cx="733.39" cy="-178.07" rx="45.15" ry="18"/>
<text text-anchor="middle" x="733.39" y="-175.57" font-family="Helvetica,sans-Serif" font-size="10.00" fill="#ffffff">utils.session</text>
</g>
<!-- utils_session&#45;&gt;alignment_map_zipper -->
<g id="edge21" class="edge">
<title>utils_session&#45;&gt;alignment_map_zipper</title><style>.edge>path:hover{stroke-width:8}</style>
<path fill="none" stroke="black" d="M738.22,-160.16C741.9,-143.66 744.61,-118.5 733.39,-100.64"/>
</g>
<!-- utils_session_map -->
<g id="node16" class="node">
<title>utils_session_map</title><style>.edge>path:hover{stroke-width:8}</style>
<ellipse fill="#5353b6" stroke="black" cx="853.39" cy="-178.07" rx="56.64" ry="21.43"/>
<text text-anchor="middle" x="853.39" y="-181.07" font-family="Helvetica,sans-Serif" font-size="10.00" fill="#ffffff">utils.</text>
<text text-anchor="middle" x="853.39" y="-170.07" font-family="Helvetica,sans-Serif" font-size="10.00" fill="#ffffff">session_map</text>
</g>
<!-- utils_session_map&#45;&gt;alignment_map_zipper -->
<g id="edge22" class="edge">
<title>utils_session_map&#45;&gt;alignment_map_zipper</title><style>.edge>path:hover{stroke-width:8}</style>
<path fill="none" stroke="black" d="M814.01,-162.64C786.68,-150.46 751.98,-130.23 733.39,-100.64"/>
</g>
</g>
</svg>
